<svg xmlns="http://www.w3.org/2000/svg" viewBox="0 0 48 48" width="32" height="32">
  <path d="M8.5 7C5.467 7 3 9.467 3 12.5L3 30.5C3 33.533 5.467 36 8.5 36L39.5 36C42.533 36 45 33.533 45 30.5L45 12.5C45 9.467 42.533 7 39.5 7L8.5 7 z M 20.955078 15.996094C21.123734 15.988359 21.300297 16.023828 21.466797 16.111328L30.025391 20.615234C30.737391 20.989234 30.736437 22.009766 30.023438 22.384766L21.464844 26.890625C20.799844 27.240625 20 26.757859 20 26.005859L20 16.996094C20 16.431344 20.449109 16.019297 20.955078 15.996094 z M 15.5 39 A 1.50015 1.50015 0 1 0 15.5 42L32.5 42 A 1.50015 1.50015 0 1 0 32.5 39L15.5 39 z" fill="#ff0000" />
</svg>
